<svg width="80" height="88" viewBox="0 0 80 88" fill="none" xmlns="http://www.w3.org/2000/svg">
<g filter="url(#filter0_b_66_1857)">
<path d="M0 47.8954C0 25.8618 17.9664 8 40 8C62.0336 8 80 25.8618 80 47.8954C80 69.929 62.0336 87.7908 40 87.7908C17.9664 87.7908 0 69.929 0 47.8954Z" fill="url(#paint0_radial_66_1857)"/>
<path d="M0.5 47.8954C0.5 26.1396 18.2408 8.5 40 8.5C61.7592 8.5 79.5 26.1396 79.5 47.8954C79.5 69.6512 61.7592 87.2908 40 87.2908C18.2408 87.2908 0.5 69.6512 0.5 47.8954Z" stroke="url(#paint1_radial_66_1857)"/>
<path d="M0.5 47.8954C0.5 26.1396 18.2408 8.5 40 8.5C61.7592 8.5 79.5 26.1396 79.5 47.8954C79.5 69.6512 61.7592 87.2908 40 87.2908C18.2408 87.2908 0.5 69.6512 0.5 47.8954Z" stroke="url(#paint2_radial_66_1857)"/>
<path d="M0.5 47.8954C0.5 26.1396 18.2408 8.5 40 8.5C61.7592 8.5 79.5 26.1396 79.5 47.8954C79.5 69.6512 61.7592 87.2908 40 87.2908C18.2408 87.2908 0.5 69.6512 0.5 47.8954Z" stroke="url(#paint3_radial_66_1857)"/>
</g>
<g filter="url(#filter1_f_66_1857)">
<ellipse cx="39.744" cy="29.4826" rx="25.3846" ry="16.3673" fill="url(#paint4_radial_66_1857)" fill-opacity="0.2"/>
</g>
<path d="M54.9337 38.6659V34.9326C54.9337 32.8736 53.2593 31.1992 51.2004 31.1992H26.9337C23.8463 31.1992 21.3337 33.7118 21.3337 36.7992V59.1992C21.3337 63.3078 24.6825 64.7992 26.9337 64.7992H54.9337C56.9927 64.7992 58.6671 63.1248 58.6671 61.0659V42.3992C58.6671 40.3403 56.9927 38.6659 54.9337 38.6659ZM51.2004 55.4659H47.4671V47.9992H51.2004V55.4659ZM26.9337 38.6659C26.4531 38.6444 25.9993 38.4383 25.6668 38.0906C25.3343 37.7429 25.1487 37.2803 25.1487 36.7992C25.1487 36.3181 25.3343 35.8555 25.6668 35.5078C25.9993 35.1601 26.4531 34.9541 26.9337 34.9326H51.2004V38.6659H26.9337Z" fill="url(#paint5_linear_66_1857)"/>
<defs>
<filter id="filter0_b_66_1857" x="-5" y="3" width="90" height="89.791" filterUnits="userSpaceOnUse" color-interpolation-filters="sRGB">
<feFlood flood-opacity="0" result="BackgroundImageFix"/>
<feGaussianBlur in="BackgroundImageFix" stdDeviation="2.5"/>
<feComposite in2="SourceAlpha" operator="in" result="effect1_backgroundBlur_66_1857"/>
<feBlend mode="normal" in="SourceGraphic" in2="effect1_backgroundBlur_66_1857" result="shape"/>
</filter>
<filter id="filter1_f_66_1857" x="1.40484" y="0.1607" width="76.6784" height="58.6434" filterUnits="userSpaceOnUse" color-interpolation-filters="sRGB">
<feFlood flood-opacity="0" result="BackgroundImageFix"/>
<feBlend mode="normal" in="SourceGraphic" in2="BackgroundImageFix" result="shape"/>
<feGaussianBlur stdDeviation="6.47727" result="effect1_foregroundBlur_66_1857"/>
</filter>
<radialGradient id="paint0_radial_66_1857" cx="0" cy="0" r="1" gradientUnits="userSpaceOnUse" gradientTransform="translate(6.69204 8) rotate(47.9449) scale(119.431 86.7751)">
<stop stop-color="white" stop-opacity="0.36"/>
<stop offset="1" stop-color="white" stop-opacity="0"/>
</radialGradient>
<radialGradient id="paint1_radial_66_1857" cx="0" cy="0" r="1" gradientUnits="userSpaceOnUse" gradientTransform="translate(-42.5965 16.1628) rotate(35.0407) scale(92.1512 54.3882)">
<stop stop-color="white"/>
<stop offset="1" stop-color="white" stop-opacity="0.06"/>
</radialGradient>
<radialGradient id="paint2_radial_66_1857" cx="0" cy="0" r="1" gradientUnits="userSpaceOnUse" gradientTransform="translate(103.421 61.4008) rotate(161.385) scale(66.8428 45.1784)">
<stop stop-color="#8470FF"/>
<stop offset="1" stop-color="#865CFF" stop-opacity="0"/>
</radialGradient>
<radialGradient id="paint3_radial_66_1857" cx="0" cy="0" r="1" gradientUnits="userSpaceOnUse" gradientTransform="translate(40.871 -10.2359) rotate(47.2149) scale(44.643 32.0879)">
<stop/>
<stop offset="1" stop-color="white" stop-opacity="0"/>
</radialGradient>
<radialGradient id="paint4_radial_66_1857" cx="0" cy="0" r="1" gradientUnits="userSpaceOnUse" gradientTransform="translate(39.744 13.1152) rotate(90) scale(24.2566 37.625)">
<stop stop-color="white"/>
<stop offset="1" stop-color="white" stop-opacity="0"/>
</radialGradient>
<linearGradient id="paint5_linear_66_1857" x1="28.1393" y1="81.2492" x2="74.6103" y2="41.042" gradientUnits="userSpaceOnUse">
<stop stop-color="#982DEC"/>
<stop offset="0.572917" stop-color="#DC8DF8"/>
<stop offset="0.895833" stop-color="#A9C4F3"/>
</linearGradient>
</defs>
</svg>
