<svg width="687" height="1483" viewBox="0 0 687 1483" fill="none" xmlns="http://www.w3.org/2000/svg">
<g opacity="0.5">
<path opacity="0.0344828" d="M1263 344.721C1255.95 336.324 1245.35 331.146 1231.49 329.067C1217.61 326.986 1200.53 328.018 1180.65 331.993C1140.88 339.941 1090.1 359.613 1031.76 389.295C915.079 448.653 768.328 547.938 619.178 673.09C470.028 798.241 346.768 925.523 268.051 1030.12C228.688 1082.43 200.498 1129.02 185.765 1166.8C178.398 1185.69 174.415 1202.33 174.055 1216.36C173.695 1230.37 176.953 1241.71 183.999 1250.11C191.045 1258.51 201.646 1263.68 215.512 1265.76C229.386 1267.84 246.466 1266.81 266.351 1262.84C306.119 1254.89 356.894 1235.22 415.241 1205.53C531.919 1146.18 678.671 1046.89 827.821 921.741C976.971 796.589 1100.23 669.307 1178.95 564.709C1218.31 512.403 1246.5 465.815 1261.23 428.031C1268.6 409.139 1272.58 392.498 1272.94 378.473C1273.3 364.456 1270.04 353.117 1263 344.721Z" stroke="#2B2C3B" stroke-width="2"/>
<path opacity="0.0689655" d="M1221.49 293.794C1213.74 286.044 1202.73 281.81 1188.74 280.946C1174.73 280.082 1157.81 282.6 1138.34 288.292C1099.42 299.676 1050.55 323.699 995.016 358.353C883.955 427.654 746.415 539.351 608.74 677.026C471.065 814.701 359.368 952.241 290.067 1063.3C255.412 1118.84 231.39 1167.71 220.006 1206.63C214.313 1226.09 211.796 1243.02 212.66 1257.02C213.523 1271.02 217.757 1282.03 225.508 1289.78C233.258 1297.53 244.27 1301.76 258.265 1302.63C272.268 1303.49 289.193 1300.97 308.655 1295.28C347.579 1283.9 396.447 1259.87 451.985 1225.22C563.046 1155.92 700.586 1044.22 838.26 906.547C975.935 768.872 1087.63 631.332 1156.93 520.271C1191.59 464.734 1215.61 415.865 1226.99 376.942C1232.69 357.479 1235.2 340.554 1234.34 326.551C1233.48 312.557 1229.24 301.545 1221.49 293.794Z" stroke="#2B2C3B" stroke-width="2"/>
<path opacity="0.103448" d="M1176.19 246.656C1167.8 239.611 1156.46 236.352 1142.44 236.712C1128.42 237.072 1111.78 241.055 1092.88 248.422C1055.1 263.155 1008.51 291.345 956.206 330.708C851.608 409.425 724.326 532.685 599.174 681.835C474.023 830.985 374.738 977.736 315.38 1094.41C285.698 1152.76 266.026 1203.54 258.078 1243.3C254.103 1263.19 253.071 1280.27 255.152 1294.14C257.231 1308.01 262.409 1318.61 270.806 1325.66C279.202 1332.7 290.541 1335.96 304.558 1335.6C318.583 1335.24 335.224 1331.26 354.116 1323.89C391.9 1309.16 438.488 1280.97 490.794 1241.6C595.392 1162.89 722.674 1039.63 847.826 890.478C972.977 741.328 1072.26 594.576 1131.62 477.898C1161.3 419.552 1180.97 368.776 1188.92 329.008C1192.9 309.123 1193.93 292.043 1191.85 278.169C1189.77 264.303 1184.59 253.702 1176.19 246.656Z" stroke="#2B2C3B" stroke-width="2"/>
<path opacity="0.137931" d="M1127.45 203.622C1118.47 197.336 1106.89 195.078 1092.96 196.658C1079.02 198.239 1062.79 203.657 1044.61 212.642C1008.26 230.613 964.302 262.756 915.626 306.528C818.286 394.061 702.232 527.946 590.556 687.436C478.879 846.926 392.762 1001.77 343.8 1123.18C319.316 1183.89 304.144 1236.19 299.692 1276.5C297.466 1296.65 297.926 1313.76 301.208 1327.4C304.488 1341.03 310.57 1351.14 319.549 1357.43C328.528 1363.71 340.108 1365.97 354.039 1364.39C367.979 1362.81 384.211 1357.39 402.389 1348.41C438.744 1330.44 482.699 1298.29 531.375 1254.52C628.714 1166.99 744.769 1033.1 856.445 873.613C968.121 714.123 1054.24 559.277 1103.2 437.869C1127.68 377.158 1142.86 324.861 1147.31 284.551C1149.53 264.396 1149.07 247.291 1145.79 233.651C1142.51 220.019 1136.43 209.909 1127.45 203.622Z" stroke="#2B2C3B" stroke-width="2"/>
<path opacity="0.172414" d="M1075.63 164.98C1066.14 159.499 1054.41 158.26 1040.67 161.048C1026.92 163.838 1011.22 170.65 993.895 181.185C959.244 202.256 918.259 238.108 873.583 285.956C784.243 381.639 680.299 525.129 582.948 693.745C485.597 862.362 413.304 1024.12 375.109 1149.34C356.009 1211.95 345.454 1265.37 344.531 1305.92C344.07 1326.19 346.019 1343.19 350.478 1356.49C354.934 1369.79 361.874 1379.33 371.366 1384.81C380.859 1390.29 392.591 1391.53 406.332 1388.74C420.082 1385.95 435.779 1379.14 453.105 1368.6C487.756 1347.53 528.741 1311.68 573.417 1263.83C662.757 1168.15 766.701 1024.66 864.052 856.041C961.403 687.424 1033.7 525.661 1071.89 400.449C1090.99 337.834 1101.55 284.414 1102.47 243.87C1102.93 223.597 1100.98 206.597 1096.52 193.295C1092.07 180.001 1085.13 170.46 1075.63 164.98Z" stroke="#2B2C3B" stroke-width="2"/>
<path opacity="0.206897" d="M1021.14 130.981C1011.2 126.349 999.407 126.136 985.961 130.111C972.507 134.089 957.464 142.243 941.122 154.249C908.439 178.259 870.734 217.547 830.399 269.106C749.738 372.212 658.695 524.215 576.411 700.675C494.126 877.134 436.206 1044.58 409.07 1172.65C395.501 1236.69 389.641 1290.83 392.256 1331.3C393.563 1351.53 396.987 1368.3 402.588 1381.16C408.185 1394.01 415.93 1402.91 425.864 1407.55C435.798 1412.18 447.594 1412.39 461.04 1408.42C474.494 1404.44 489.537 1396.28 505.879 1384.28C538.562 1360.27 576.267 1320.98 616.602 1269.42C697.263 1166.32 788.306 1014.31 870.59 837.853C952.875 661.393 1010.79 493.945 1037.93 365.88C1051.5 301.839 1057.36 247.702 1054.75 207.232C1053.44 186.996 1050.01 170.231 1044.41 157.368C1038.82 144.513 1031.07 135.613 1021.14 130.981Z" stroke="#2B2C3B" stroke-width="2"/>
<path opacity="0.241379" d="M964.374 101.835C954.074 98.0862 942.305 98.9027 929.257 104.035C916.201 109.17 901.925 118.604 886.692 131.988C856.226 158.756 822.089 201.18 786.4 256.059C715.033 365.803 637.585 525.162 570.993 708.122C504.401 891.081 461.295 1062.94 445.424 1192.88C437.488 1257.86 436.368 1312.3 442.501 1352.39C445.567 1372.44 450.438 1388.84 457.139 1401.17C463.836 1413.49 472.327 1421.68 482.627 1425.42C492.927 1429.17 504.696 1428.36 517.745 1423.23C530.801 1418.09 545.076 1408.66 560.309 1395.27C590.775 1368.5 624.913 1326.08 660.601 1271.2C731.968 1161.46 809.417 1002.1 876.008 819.138C942.6 636.179 985.706 464.32 1001.58 334.377C1009.51 269.397 1010.63 214.955 1004.5 174.867C1001.43 154.822 996.563 138.419 989.862 126.093C983.165 113.775 974.674 105.584 964.374 101.835Z" stroke="#2B2C3B" stroke-width="2"/>
<path opacity="0.275862" d="M905.778 77.7338C895.19 74.8969 883.536 76.7361 870.985 82.9857C858.426 89.239 845.027 99.8816 831.019 114.543C803.002 143.864 772.692 189.102 741.922 246.882C680.391 362.429 617.127 527.931 566.734 715.999C516.342 904.066 488.379 1079.03 483.893 1209.86C481.65 1275.28 485.28 1329.62 494.883 1369.02C499.685 1388.72 505.967 1404.63 513.717 1416.33C521.462 1428.02 530.634 1435.44 541.222 1438.27C551.809 1441.11 563.463 1439.27 576.014 1433.02C588.573 1426.77 601.972 1416.13 615.981 1401.47C643.998 1372.14 674.308 1326.91 705.077 1269.13C766.608 1153.58 829.873 988.076 880.265 800.009C930.658 611.942 958.62 436.98 963.106 306.148C965.349 240.724 961.719 186.392 952.116 146.991C947.315 127.289 941.032 111.373 933.283 99.6783C925.538 87.9903 916.365 80.5707 905.778 77.7338Z" stroke="#2B2C3B" stroke-width="2"/>
<path opacity="0.310345" d="M845.794 58.8045C835 56.9011 823.551 59.749 811.592 67.0687C799.626 74.3928 787.206 86.1627 774.528 101.989C749.173 133.64 722.921 181.348 697.305 241.59C646.078 362.06 597.479 532.447 563.67 724.19C529.86 915.934 517.253 1092.67 524.187 1223.39C527.654 1288.76 536.006 1342.57 549.006 1380.99C555.506 1400.19 563.152 1415.5 571.892 1426.48C580.626 1437.45 590.41 1444.04 601.205 1445.94C611.999 1447.84 623.448 1445 635.407 1437.68C647.373 1430.35 659.793 1418.58 672.471 1402.76C697.826 1371.1 724.078 1323.4 749.694 1263.15C800.921 1142.69 849.52 972.298 883.329 780.555C917.139 588.811 929.746 412.078 922.812 281.353C919.345 215.982 910.993 162.173 897.993 123.759C891.493 104.551 883.847 89.2431 875.107 78.2682C866.373 67.2997 856.589 60.7078 845.794 58.8045Z" stroke="#2B2C3B" stroke-width="2"/>
<path opacity="0.344828" d="M784.881 45.1553C773.962 44.2 762.805 48.0349 751.529 56.3691C740.247 64.7082 728.9 77.5158 717.65 94.3866C695.15 128.127 673.156 177.941 652.888 240.187C612.356 364.663 578.792 538.637 561.822 732.598C544.853 926.558 547.697 1103.72 565.998 1233.34C575.15 1298.16 588.159 1351.04 604.458 1388.17C612.608 1406.74 621.559 1421.32 631.221 1431.5C640.878 1441.66 651.2 1447.37 662.119 1448.33C673.038 1449.29 684.196 1445.45 695.471 1437.12C706.753 1428.78 718.1 1415.97 729.351 1399.1C751.85 1365.36 773.844 1315.54 794.113 1253.3C834.645 1128.82 868.209 954.848 885.178 760.888C902.147 566.927 899.304 389.768 881.002 260.145C871.851 195.325 858.841 142.448 842.542 105.313C834.393 86.7453 825.441 72.1617 815.779 61.9902C806.122 51.8247 795.8 46.1106 784.881 45.1553Z" stroke="#2B2C3B" stroke-width="2"/>
<path opacity="0.37931" d="M723.499 36.8402C712.539 36.8402 701.758 41.6329 691.252 50.9181C680.74 60.2087 670.552 73.9567 660.815 91.7438C641.341 127.317 623.773 178.858 609.006 242.634C579.477 370.168 561.204 546.406 561.204 741.108C561.204 935.809 579.477 1112.05 609.006 1239.58C623.773 1303.36 641.341 1354.9 660.815 1390.47C670.552 1408.26 680.74 1422.01 691.252 1431.3C701.758 1440.58 712.539 1445.38 723.499 1445.38C734.46 1445.38 745.241 1440.58 755.747 1431.3C766.259 1422.01 776.447 1408.26 786.184 1390.47C805.658 1354.9 823.226 1303.36 837.993 1239.58C867.522 1112.05 885.795 935.809 885.795 741.108C885.795 546.406 867.522 370.168 837.993 242.634C823.226 178.858 805.658 127.317 786.184 91.7438C776.447 73.9567 766.259 60.2087 755.747 50.9181C745.241 41.6329 734.46 36.8402 723.499 36.8402Z" stroke="#2B2C3B" stroke-width="2"/>
<path opacity="0.413793" d="M662.118 33.8891C651.199 34.8445 640.877 40.5585 631.221 50.724C621.558 60.8955 612.607 75.4791 604.457 94.0471C588.159 131.182 575.149 184.059 565.997 248.878C547.696 378.501 544.852 555.661 561.822 749.622C578.791 943.582 612.355 1117.56 652.887 1242.03C673.155 1304.28 695.149 1354.09 717.649 1387.83C728.899 1404.7 740.247 1417.51 751.529 1425.85C762.804 1434.18 773.961 1438.02 784.88 1437.06C795.8 1436.11 806.121 1430.39 815.778 1420.23C825.441 1410.06 834.392 1395.47 842.541 1376.91C858.84 1339.77 871.85 1286.89 881.002 1222.07C899.303 1092.45 902.147 915.292 885.177 721.332C868.208 527.371 834.644 353.397 794.112 228.921C773.843 166.675 751.85 116.861 729.35 83.1204C718.1 66.2496 706.752 53.442 695.47 45.1029C684.195 36.7687 673.038 32.9338 662.118 33.8891Z" stroke="#2B2C3B" stroke-width="2"/>
<path opacity="0.448276" d="M601.204 36.2781C590.41 38.1814 580.626 44.7734 571.891 55.7418C563.152 66.7168 555.506 82.025 549.006 101.233C536.006 139.647 527.654 193.456 524.186 258.827C517.252 389.552 529.86 566.285 563.669 758.028C597.479 949.772 646.078 1120.16 697.305 1240.63C722.921 1300.87 749.173 1348.58 774.528 1380.23C787.205 1396.06 799.626 1407.83 811.592 1415.15C823.551 1422.47 835 1425.32 845.794 1423.41C856.588 1421.51 866.373 1414.92 875.107 1403.95C883.846 1392.98 891.492 1377.67 897.993 1358.46C910.993 1320.05 919.344 1266.24 922.812 1200.87C929.746 1070.14 917.139 893.407 883.329 701.664C849.519 509.92 800.92 339.533 749.694 219.064C724.077 158.821 697.826 111.114 672.471 79.4624C659.793 63.6364 647.373 51.8664 635.407 44.5424C623.448 37.2226 611.999 34.3747 601.204 36.2781Z" stroke="#2B2C3B" stroke-width="2"/>
<path opacity="0.482759" d="M541.222 43.9473C530.634 46.7842 521.462 54.2038 513.717 65.8918C505.967 77.5866 499.685 93.503 494.883 113.204C485.28 152.605 481.65 206.938 483.893 272.362C488.379 403.193 516.342 578.155 566.734 766.223C617.127 954.29 680.391 1119.79 741.922 1235.34C772.692 1293.12 803.002 1338.36 831.019 1367.68C845.027 1382.34 858.426 1392.98 870.985 1399.24C883.536 1405.49 895.19 1407.32 905.777 1404.49C916.365 1401.65 925.538 1394.23 933.283 1382.54C941.032 1370.85 947.315 1354.93 952.116 1335.23C961.719 1295.83 965.349 1241.5 963.106 1176.07C958.62 1045.24 930.657 870.279 880.265 682.212C829.873 494.145 766.608 328.642 705.077 213.096C674.307 155.315 643.998 110.077 615.981 80.7561C601.972 66.0951 588.573 55.4525 576.014 49.1992C563.463 42.9496 551.809 41.1104 541.222 43.9473Z" stroke="#2B2C3B" stroke-width="2"/>
<path opacity="0.517241" d="M482.626 56.7896C472.326 60.5385 463.835 68.7294 457.138 81.0478C450.438 93.3736 445.566 109.777 442.5 129.822C436.368 169.91 437.487 224.352 445.424 289.331C461.295 419.274 504.4 591.133 570.992 774.093C637.584 957.052 715.032 1116.41 786.4 1226.16C822.088 1281.03 856.225 1323.46 886.691 1350.23C901.924 1363.61 916.2 1373.04 929.256 1378.18C942.304 1383.31 954.074 1384.13 964.374 1380.38C974.673 1376.63 983.165 1368.44 989.861 1356.12C996.562 1343.8 1001.43 1327.39 1004.5 1307.35C1010.63 1267.26 1009.51 1212.82 1001.58 1147.84C985.705 1017.89 942.6 846.036 876.008 663.076C809.416 480.117 731.968 320.757 660.6 211.013C624.912 156.135 590.775 113.71 560.309 86.9427C545.076 73.5585 530.8 64.1242 517.744 58.9892C504.696 53.8573 492.926 53.0408 482.626 56.7896Z" stroke="#2B2C3B" stroke-width="2"/>
<path opacity="0.551724" d="M425.864 74.6721C415.93 79.3043 408.185 88.2041 402.587 101.059C396.986 113.922 393.563 130.688 392.255 150.923C389.64 191.393 395.5 245.531 409.07 309.571C436.206 437.636 494.126 605.085 576.41 781.544C658.695 958.004 749.737 1110.01 830.398 1213.11C870.733 1264.67 908.438 1303.96 941.121 1327.97C957.463 1339.98 972.507 1348.13 985.96 1352.11C999.406 1356.08 1011.2 1355.87 1021.14 1351.24C1031.07 1346.61 1038.82 1337.71 1044.41 1324.85C1050.01 1311.99 1053.44 1295.22 1054.74 1274.99C1057.36 1234.52 1051.5 1180.38 1037.93 1116.34C1010.79 988.274 952.874 820.826 870.589 644.366C788.305 467.907 697.263 315.904 616.602 212.798C576.266 161.238 538.561 121.95 505.879 97.9398C489.537 85.9342 474.493 77.78 461.039 73.8026C447.594 69.8274 435.798 70.0398 425.864 74.6721Z" stroke="#2B2C3B" stroke-width="2"/>
<path opacity="0.586207" d="M371.366 97.4099C361.874 102.89 354.934 112.431 350.478 125.725C346.02 139.028 344.07 156.028 344.532 176.3C345.454 216.844 356.01 270.265 375.109 332.879C413.304 458.092 485.597 619.855 582.948 788.471C680.299 957.087 784.243 1100.58 873.583 1196.26C918.259 1244.11 959.244 1279.96 993.895 1301.03C1011.22 1311.57 1026.92 1318.38 1040.67 1321.17C1054.41 1323.96 1066.14 1322.72 1075.63 1317.24C1085.13 1311.76 1092.07 1302.22 1096.52 1288.92C1100.98 1275.62 1102.93 1258.62 1102.47 1238.35C1101.55 1197.8 1090.99 1144.38 1071.89 1081.77C1033.7 956.555 961.403 794.792 864.052 626.176C766.701 457.559 662.757 314.07 573.417 218.386C528.741 170.538 487.756 134.686 453.105 113.615C435.779 103.08 420.082 96.2677 406.332 93.4779C392.591 90.6898 380.859 91.9294 371.366 97.4099Z" stroke="#2B2C3B" stroke-width="2"/>
<path opacity="0.62069" d="M319.549 124.793C310.571 131.08 304.489 141.189 301.208 154.821C297.926 168.461 297.466 185.567 299.692 205.722C304.145 246.031 319.316 298.328 343.8 359.04C392.763 480.447 478.88 635.294 590.556 794.784C702.232 954.274 818.286 1088.16 915.626 1175.69C964.302 1219.46 1008.26 1251.61 1044.61 1269.58C1062.79 1278.56 1079.02 1283.98 1092.96 1285.56C1106.89 1287.14 1118.47 1284.88 1127.45 1278.6C1136.43 1272.31 1142.51 1262.2 1145.79 1248.57C1149.07 1234.93 1149.53 1217.82 1147.31 1197.67C1142.86 1157.36 1127.68 1105.06 1103.2 1044.35C1054.24 922.943 968.121 768.096 856.445 608.606C744.769 449.116 628.715 315.232 531.375 227.699C482.699 183.927 438.745 151.783 402.389 133.813C384.211 124.827 367.98 119.409 354.04 117.829C340.108 116.249 328.528 118.506 319.549 124.793Z" stroke="#2B2C3B" stroke-width="2"/>
<path opacity="0.655172" d="M270.806 156.561C262.409 163.607 257.231 174.208 255.152 188.074C253.071 201.948 254.103 219.028 258.078 238.913C266.026 278.681 285.698 329.457 315.38 387.803C374.738 504.481 474.023 651.233 599.174 800.383C724.326 949.533 851.608 1072.79 956.206 1151.51C1008.51 1190.87 1055.1 1219.06 1092.88 1233.8C1111.78 1241.16 1128.42 1245.15 1142.44 1245.51C1156.46 1245.87 1167.8 1242.61 1176.19 1235.56C1184.59 1228.52 1189.77 1217.91 1191.85 1204.05C1193.93 1190.17 1192.9 1173.09 1188.92 1153.21C1180.97 1113.44 1161.3 1062.67 1131.62 1004.32C1072.26 887.642 972.977 740.89 847.826 591.74C722.674 442.59 595.392 319.33 490.794 240.614C438.488 201.25 391.9 173.06 354.116 158.327C335.224 150.96 318.583 146.977 304.558 146.617C290.541 146.258 279.202 149.516 270.806 156.561Z" stroke="#2B2C3B" stroke-width="2"/>
<path opacity="0.689655" d="M225.508 192.44C217.757 200.19 213.523 211.202 212.66 225.197C211.796 239.2 214.313 256.125 220.006 275.587C231.39 314.511 255.413 363.379 290.067 418.917C359.368 529.977 471.065 667.517 608.74 805.192C746.415 942.867 883.955 1054.56 995.016 1123.87C1050.55 1158.52 1099.42 1182.54 1138.35 1193.93C1157.81 1199.62 1174.73 1202.14 1188.74 1201.27C1202.73 1200.41 1213.74 1196.17 1221.49 1188.42C1229.24 1180.67 1233.48 1169.66 1234.34 1155.67C1235.2 1141.66 1232.69 1124.74 1226.99 1105.28C1215.61 1066.35 1191.59 1017.48 1156.93 961.947C1087.63 850.887 975.935 713.347 838.26 575.672C700.586 437.997 563.046 326.299 451.985 256.999C396.447 222.344 347.579 198.322 308.656 186.938C289.193 181.245 272.268 178.728 258.265 179.592C244.271 180.455 233.259 184.689 225.508 192.44Z" stroke="#2B2C3B" stroke-width="2"/>
<path opacity="0.724138" d="M183.999 232.173C176.953 240.57 173.695 251.909 174.055 265.925C174.415 279.95 178.398 296.592 185.764 315.484C200.498 353.267 228.688 399.856 268.051 452.162C346.768 556.76 470.028 684.041 619.178 809.193C768.328 934.345 915.079 1033.63 1031.76 1092.99C1090.1 1122.67 1140.88 1142.34 1180.65 1150.29C1200.53 1154.26 1217.61 1155.3 1231.49 1153.22C1245.35 1151.14 1255.95 1145.96 1263 1137.56C1270.04 1129.17 1273.3 1117.83 1272.94 1103.81C1272.58 1089.79 1268.6 1073.14 1261.23 1054.25C1246.5 1016.47 1218.31 969.879 1178.95 917.574C1100.23 812.975 976.971 685.694 827.821 560.542C678.671 435.39 531.919 336.105 415.241 276.748C356.894 247.066 306.118 227.394 266.35 219.445C246.466 215.471 229.386 214.438 215.511 216.519C201.646 218.599 191.044 223.777 183.999 232.173Z" stroke="#2B2C3B" stroke-width="2"/>
<path opacity="0.758621" d="M146.598 275.286C140.311 284.265 138.054 295.844 139.634 309.776C141.214 323.716 146.632 339.947 155.618 358.126C173.588 394.481 205.732 438.436 249.504 487.111C337.037 584.451 470.921 700.506 630.411 812.182C789.901 923.858 944.748 1009.97 1066.16 1058.94C1126.87 1083.42 1179.16 1098.59 1219.47 1103.05C1239.63 1105.27 1256.73 1104.81 1270.37 1101.53C1284.01 1098.25 1294.12 1092.17 1300.4 1083.19C1306.69 1074.21 1308.95 1062.63 1307.37 1048.7C1305.79 1034.76 1300.37 1018.53 1291.38 1000.35C1273.41 963.993 1241.27 920.039 1197.5 871.363C1109.96 774.023 976.079 657.969 816.589 546.292C657.099 434.616 502.252 348.499 380.845 299.537C320.133 275.053 267.836 259.881 227.527 255.429C207.372 253.203 190.266 253.663 176.626 256.945C162.994 260.225 152.885 266.307 146.598 275.286Z" stroke="#2B2C3B" stroke-width="2"/>
<path opacity="0.793103" d="M113.586 321.473C108.106 330.965 106.866 342.698 109.654 356.439C112.444 370.188 119.256 385.885 129.792 403.211C150.862 437.862 186.714 478.848 234.562 523.524C330.246 612.864 473.735 716.808 642.352 814.159C810.968 911.509 972.731 983.803 1097.94 1022C1160.56 1041.1 1213.98 1051.65 1254.52 1052.58C1274.8 1053.04 1291.8 1051.09 1305.1 1046.63C1318.39 1042.17 1327.93 1035.23 1333.41 1025.74C1338.89 1016.25 1340.13 1004.52 1337.35 990.774C1334.56 977.025 1327.74 961.328 1317.21 944.002C1296.14 909.351 1260.28 868.365 1212.44 823.69C1116.75 734.349 973.264 630.405 804.647 533.055C636.031 435.704 474.268 363.41 349.055 325.216C286.441 306.116 233.02 295.56 192.476 294.638C172.204 294.177 155.204 296.126 141.902 300.585C128.607 305.041 119.067 311.98 113.586 321.473Z" stroke="#2B2C3B" stroke-width="2"/>
<path opacity="0.827586" d="M85.2162 370.338C80.5839 380.272 80.3715 392.068 84.3467 405.514C88.3242 418.967 96.4784 434.011 108.484 450.353C132.494 483.036 171.782 520.74 223.342 561.076C326.448 641.737 478.451 732.779 654.91 815.064C831.37 897.348 998.818 955.268 1126.88 982.404C1190.92 995.974 1245.06 1001.83 1285.53 999.219C1305.77 997.911 1322.53 994.488 1335.4 988.887C1348.25 983.289 1357.15 975.544 1361.78 965.61C1366.41 955.676 1366.63 943.88 1362.65 930.435C1358.67 916.981 1350.52 901.937 1338.51 885.595C1314.5 852.913 1275.22 815.208 1223.66 774.872C1120.55 694.211 968.548 603.169 792.088 520.885C615.629 438.6 448.181 380.68 320.115 353.544C256.075 339.974 201.938 334.115 161.467 336.729C141.232 338.037 124.466 341.46 111.603 347.061C98.7482 352.659 89.8484 360.404 85.2162 370.338Z" stroke="#2B2C3B" stroke-width="2"/>
<path opacity="0.862069" d="M61.7052 421.471C57.9563 431.771 58.7729 443.541 63.9048 456.589C69.0397 469.645 78.474 483.921 91.8582 499.154C118.626 529.62 161.05 563.757 215.929 599.445C325.673 670.813 485.032 748.261 667.992 814.853C850.951 881.445 1022.81 924.55 1152.75 940.422C1217.73 948.358 1272.17 949.477 1312.26 943.345C1332.31 940.279 1348.71 935.407 1361.04 928.707C1373.36 922.01 1381.55 913.519 1385.29 903.219C1389.04 892.919 1388.23 881.149 1383.1 868.101C1377.96 855.045 1368.53 840.769 1355.14 825.536C1328.37 795.071 1285.95 760.933 1231.07 725.245C1121.33 653.877 961.968 576.429 779.008 509.837C596.049 443.245 424.19 400.14 294.247 384.269C229.267 376.332 174.825 375.213 134.737 381.345C114.692 384.411 98.2892 389.283 85.9634 395.984C73.6449 402.68 65.4541 411.172 61.7052 421.471Z" stroke="#2B2C3B" stroke-width="2"/>
<path opacity="0.896552" d="M43.2299 474.436C40.393 485.024 42.2322 496.677 48.4818 509.229C54.7351 521.787 65.3777 535.187 80.0387 549.195C109.36 577.212 154.598 607.522 212.378 638.291C327.925 699.823 493.428 763.087 681.495 813.48C869.562 863.872 1044.52 891.835 1175.36 896.321C1240.78 898.564 1295.11 894.934 1334.51 885.331C1354.21 880.529 1370.13 874.247 1381.83 866.497C1393.51 858.752 1400.93 849.579 1403.77 838.992C1406.61 828.405 1404.77 816.751 1398.52 804.2C1392.26 791.641 1381.62 778.242 1366.96 764.233C1337.64 736.216 1292.4 705.906 1234.62 675.137C1119.08 613.606 953.572 550.341 765.505 499.949C577.438 449.556 402.476 421.593 271.644 417.108C206.22 414.865 151.888 418.495 112.487 428.098C92.7856 432.899 76.8692 439.182 65.1744 446.931C53.4864 454.676 46.0668 463.849 43.2299 474.436Z" stroke="#2B2C3B" stroke-width="2"/>
<path opacity="0.931035" d="M29.9324 528.788C28.029 539.582 30.8769 551.031 38.1967 562.99C45.5207 574.956 57.2907 587.376 73.1167 600.054C104.768 625.409 152.476 651.661 212.718 677.277C333.187 728.504 503.574 777.103 695.318 810.912C887.062 844.722 1063.79 857.33 1194.52 850.395C1259.89 846.928 1313.7 838.576 1352.11 825.576C1371.32 819.076 1386.63 811.43 1397.6 802.69C1408.57 793.956 1415.17 784.172 1417.07 773.377C1418.97 762.583 1416.12 751.134 1408.8 739.175C1401.48 727.209 1389.71 714.789 1373.88 702.111C1342.23 676.756 1294.53 650.504 1234.28 624.888C1113.81 573.661 943.426 525.062 751.683 491.253C559.939 457.443 383.206 444.836 252.481 451.77C187.11 455.237 133.301 463.589 94.8869 476.589C75.6793 483.09 60.3711 490.735 49.3961 499.475C38.4277 508.209 31.8357 517.993 29.9324 528.788Z" stroke="#2B2C3B" stroke-width="2"/>
<path opacity="0.965517" d="M21.9132 584.073C20.9578 594.992 24.7927 606.149 33.1269 617.425C41.466 628.707 54.2737 640.054 71.1445 651.304C104.885 673.804 154.699 695.798 216.945 716.067C341.421 756.599 515.395 790.163 709.356 807.132C903.316 824.101 1080.48 821.258 1210.1 802.956C1274.92 793.804 1327.79 780.795 1364.93 764.496C1383.5 756.346 1398.08 747.395 1408.25 737.733C1418.42 728.076 1424.13 717.754 1425.09 706.835C1426.04 695.916 1422.21 684.758 1413.87 673.483C1405.54 662.201 1392.73 650.854 1375.86 639.604C1342.12 617.104 1292.3 595.11 1230.06 574.841C1105.58 534.309 931.606 500.745 737.646 483.776C543.685 466.807 366.525 469.65 236.902 487.952C172.083 497.103 119.206 510.113 82.0711 526.412C63.5031 534.562 48.9195 543.513 38.748 553.175C28.5825 562.832 22.8685 573.154 21.9132 584.073Z" stroke="#2B2C3B" stroke-width="2"/>
<path d="M19.2318 639.821C19.2318 650.782 24.0245 661.562 33.3097 672.068C42.6003 682.581 56.3483 692.769 74.1354 702.506C109.709 721.979 161.25 739.548 225.025 754.314C352.56 783.843 528.798 802.116 723.499 802.116C918.201 802.116 1094.44 783.843 1221.97 754.314C1285.75 739.548 1337.29 721.979 1372.86 702.506C1390.65 692.769 1404.4 682.581 1413.69 672.068C1422.97 661.562 1427.77 650.782 1427.77 639.821C1427.77 628.86 1422.97 618.079 1413.69 607.573C1404.4 597.061 1390.65 586.873 1372.86 577.136C1337.29 557.663 1285.75 540.094 1221.97 525.328C1094.44 495.799 918.201 477.525 723.499 477.525C528.798 477.525 352.56 495.799 225.025 525.328C161.25 540.094 109.709 557.663 74.1354 577.136C56.3483 586.873 42.6003 597.061 33.3097 607.573C24.0245 618.079 19.2318 628.86 19.2318 639.821Z" stroke="#2B2C3B" stroke-width="2"/>
</g>
</svg>
