<svg width="744" height="1210" viewBox="0 0 744 1210" fill="none" xmlns="http://www.w3.org/2000/svg">
<path d="M-10.8185 715.858C-4.19734 742.004 14.3328 763.86 42.2553 780.981C70.1806 798.104 107.472 810.473 151.538 817.644C239.67 831.984 354.803 825.515 476.038 794.814C597.273 764.113 701.609 715.006 772.293 660.448C807.635 633.168 834.545 604.542 850.955 576.191C867.363 547.844 873.258 519.803 866.637 493.657C860.016 467.51 841.486 445.655 813.563 428.533C785.638 411.41 748.347 399.041 704.28 391.871C616.149 377.53 501.015 383.999 379.78 414.7C258.545 445.401 154.21 494.509 83.5256 549.066C48.183 576.346 21.2732 604.973 4.86336 633.323C-11.5449 661.671 -17.4397 689.711 -10.8185 715.858Z" stroke="url(#paint0_linear_73_5261)"/>
<path d="M-209.752 766.233C-200.113 804.296 -173.142 836.093 -132.538 860.991C-91.9316 885.89 -37.7192 903.868 26.3247 914.289C154.411 935.131 321.724 925.727 497.892 881.115C674.061 836.504 825.684 765.142 928.413 685.85C979.778 646.204 1018.9 604.59 1042.76 563.365C1066.62 522.144 1075.21 481.341 1065.57 443.279C1055.93 405.217 1028.96 373.419 988.356 348.522C947.749 323.623 893.537 305.644 829.493 295.223C701.407 274.382 534.094 283.785 357.925 328.397C181.757 373.009 30.1338 444.37 -72.5951 523.662C-123.96 563.309 -163.082 604.923 -186.944 646.147C-210.804 687.369 -219.391 728.171 -209.752 766.233Z" stroke="url(#paint1_linear_73_5261)"/>
<path d="M-451.817 827.532C-438.506 880.094 -401.263 923.989 -345.229 958.348C-289.192 992.709 -214.39 1017.51 -126.037 1031.89C50.6665 1060.64 281.472 1047.67 524.485 986.129C767.498 924.59 976.66 826.15 1118.38 716.761C1189.24 662.067 1243.22 604.65 1276.15 547.76C1309.08 490.872 1320.94 434.542 1307.63 381.98C1294.32 329.419 1257.08 285.523 1201.05 251.164C1145.01 216.803 1070.21 191.999 981.854 177.622C805.15 148.87 574.345 161.844 331.332 223.383C88.319 284.922 -120.843 383.363 -262.565 492.751C-333.426 547.446 -387.408 604.862 -420.337 661.753C-453.265 718.64 -465.127 774.97 -451.817 827.532Z" stroke="url(#paint2_linear_73_5261)"/>
<defs>
<linearGradient id="paint0_linear_73_5261" x1="836.357" y1="478.463" x2="76.0196" y2="793.9" gradientUnits="userSpaceOnUse">
<stop stop-color="#484848"/>
<stop offset="0.491388" stop-color="#484848" stop-opacity="0.36"/>
<stop offset="1" stop-color="#484848"/>
</linearGradient>
<linearGradient id="paint1_linear_73_5261" x1="1021.36" y1="421.26" x2="-83.3625" y2="879.568" gradientUnits="userSpaceOnUse">
<stop stop-color="#484848"/>
<stop offset="0.491388" stop-color="#484848" stop-opacity="0.36"/>
<stop offset="1" stop-color="#484848"/>
</linearGradient>
<linearGradient id="paint2_linear_73_5261" x1="1246.46" y1="351.655" x2="-277.301" y2="983.81" gradientUnits="userSpaceOnUse">
<stop stop-color="#484848"/>
<stop offset="0.491388" stop-color="#484848" stop-opacity="0.36"/>
<stop offset="1" stop-color="#484848"/>
</linearGradient>
</defs>
</svg>
