<svg width="1440" height="1503" viewBox="0 0 1440 1503" fill="none" xmlns="http://www.w3.org/2000/svg">
<path d="M139.83 937.991C148.516 972.293 172.824 1000.95 209.427 1023.4C246.032 1045.84 294.905 1062.05 352.646 1071.45C468.126 1090.24 618.975 1081.76 777.811 1041.54C936.647 1001.31 1073.35 936.975 1165.97 865.487C1212.28 829.743 1247.55 792.227 1269.06 755.064C1290.57 717.904 1298.3 681.129 1289.62 646.826C1280.93 612.524 1256.62 583.863 1220.02 561.419C1183.41 538.973 1134.54 522.765 1076.8 513.37C961.32 494.579 810.471 503.057 651.635 543.28C492.799 583.502 356.096 647.842 263.478 719.33C217.168 755.074 181.9 792.59 160.389 829.753C138.88 866.913 131.143 903.688 139.83 937.991Z" stroke="url(#paint0_linear_66_1598)"/>
<path d="M-120.777 1003.98C-108.138 1053.9 -72.7714 1095.58 -19.5562 1128.21C33.6617 1160.85 104.702 1184.4 188.614 1198.06C356.435 1225.36 575.64 1213.04 806.441 1154.59C1037.24 1096.15 1235.89 1002.66 1370.49 898.766C1437.79 846.82 1489.05 792.291 1520.33 738.263C1551.6 684.237 1562.86 630.744 1550.22 580.831C1537.58 530.919 1502.22 489.234 1449 456.603C1395.78 423.971 1324.74 400.414 1240.83 386.76C1073.01 359.453 853.805 371.775 623.005 430.221C392.204 488.668 193.554 582.161 58.9567 686.05C-8.34279 737.996 -59.6092 792.525 -90.8818 846.553C-122.153 900.579 -133.417 954.072 -120.777 1003.98Z" stroke="url(#paint1_linear_66_1598)"/>
<path d="M-437.887 1084.29C-420.438 1153.19 -371.616 1210.73 -298.186 1255.75C-224.754 1300.78 -126.74 1333.28 -10.9833 1352.12C220.528 1389.79 522.909 1372.79 841.277 1292.16C1159.65 1211.54 1433.67 1082.58 1619.35 939.26C1712.19 867.601 1782.93 792.369 1826.08 717.819C1869.23 643.272 1884.78 569.436 1867.33 500.529C1849.88 431.621 1801.06 374.088 1727.63 329.062C1654.2 284.035 1556.18 251.536 1440.43 232.7C1208.92 195.03 906.535 212.029 588.167 292.651C269.799 373.272 -4.22907 502.239 -189.908 645.556C-282.748 717.215 -353.481 792.447 -396.632 866.997C-439.782 941.544 -455.337 1015.38 -437.887 1084.29Z" stroke="url(#paint2_linear_66_1598)"/>
<defs>
<linearGradient id="paint0_linear_66_1598" x1="1249.8" y1="626.961" x2="253.74" y2="1040.19" gradientUnits="userSpaceOnUse">
<stop stop-color="#484848"/>
<stop offset="0.491388" stop-color="#484848" stop-opacity="0.36"/>
<stop offset="1" stop-color="#484848"/>
</linearGradient>
<linearGradient id="paint1_linear_66_1598" x1="1492.15" y1="552.023" x2="44.946" y2="1152.42" gradientUnits="userSpaceOnUse">
<stop stop-color="#484848"/>
<stop offset="0.491388" stop-color="#484848" stop-opacity="0.36"/>
<stop offset="1" stop-color="#484848"/>
</linearGradient>
<linearGradient id="paint2_linear_66_1598" x1="1787.05" y1="460.84" x2="-209.117" y2="1288.98" gradientUnits="userSpaceOnUse">
<stop stop-color="#484848"/>
<stop offset="0.491388" stop-color="#484848" stop-opacity="0.36"/>
<stop offset="1" stop-color="#484848"/>
</linearGradient>
</defs>
</svg>
