<svg width="375" height="835" viewBox="0 0 375 835" fill="none" xmlns="http://www.w3.org/2000/svg">
<path d="M-54.5377 493.858C-49.9822 511.847 -37.2307 526.897 -17.9893 538.695C1.25474 550.495 26.9624 559.024 57.353 563.969C118.133 573.859 197.545 569.399 281.174 548.221C364.803 527.043 436.768 493.17 485.515 455.544C509.889 436.731 528.439 416.994 539.748 397.457C551.054 377.923 555.106 358.619 550.551 340.629C545.995 322.64 533.244 307.591 514.003 295.792C494.759 283.992 469.051 275.464 438.66 270.518C377.881 260.629 298.468 265.089 214.839 286.267C131.21 307.444 59.2453 341.318 10.4983 378.943C-13.8759 397.757 -32.4258 417.493 -43.7343 437.03C-55.0412 456.564 -59.0932 475.869 -54.5377 493.858Z" stroke="url(#paint0_linear_73_5822)"/>
<path d="M-191.789 528.616C-185.152 554.826 -166.576 576.735 -138.586 593.898C-110.593 611.063 -73.2103 623.462 -29.0365 630.65C59.3093 645.025 174.723 638.54 296.253 607.765C417.782 576.99 522.372 527.762 593.228 473.072C628.657 445.726 655.632 417.029 672.082 388.61C688.53 360.193 694.439 332.084 687.802 305.874C681.165 279.663 662.589 257.755 634.599 240.591C606.605 223.426 569.223 211.027 525.049 203.839C436.704 189.464 321.29 195.949 199.76 226.725C78.2305 257.5 -26.3592 306.727 -97.2152 361.418C-132.644 388.764 -159.619 417.46 -176.069 445.88C-192.517 474.296 -198.427 502.405 -191.789 528.616Z" stroke="url(#paint1_linear_73_5822)"/>
<path d="M-358.799 570.907C-349.628 607.121 -323.966 637.377 -285.329 661.068C-246.69 684.761 -195.102 701.87 -134.157 711.786C-12.268 731.62 146.951 722.671 314.6 680.217C482.248 637.763 626.536 569.853 724.295 494.398C773.174 456.669 810.402 417.07 833.108 377.842C855.812 338.617 863.981 299.795 854.811 263.581C845.64 227.366 819.978 197.111 781.341 173.42C742.702 149.727 691.114 132.618 630.169 122.701C508.28 102.868 349.06 111.817 181.412 154.271C13.7642 196.725 -130.524 264.635 -228.283 340.09C-277.163 377.818 -314.39 417.418 -337.096 456.645C-359.8 495.87 -367.97 534.693 -358.799 570.907Z" stroke="url(#paint2_linear_73_5822)"/>
<defs>
<linearGradient id="paint0_linear_73_5822" x1="529.81" y1="330.109" x2="5.22488" y2="547.74" gradientUnits="userSpaceOnUse">
<stop stop-color="#484848"/>
<stop offset="0.491388" stop-color="#484848" stop-opacity="0.36"/>
<stop offset="1" stop-color="#484848"/>
</linearGradient>
<linearGradient id="paint1_linear_73_5822" x1="657.448" y1="290.644" x2="-104.739" y2="606.847" gradientUnits="userSpaceOnUse">
<stop stop-color="#484848"/>
<stop offset="0.491388" stop-color="#484848" stop-opacity="0.36"/>
<stop offset="1" stop-color="#484848"/>
</linearGradient>
<linearGradient id="paint2_linear_73_5822" x1="812.758" y1="242.62" x2="-238.544" y2="678.767" gradientUnits="userSpaceOnUse">
<stop stop-color="#484848"/>
<stop offset="0.491388" stop-color="#484848" stop-opacity="0.36"/>
<stop offset="1" stop-color="#484848"/>
</linearGradient>
</defs>
</svg>
